<svg width="597" height="599" viewBox="0 0 597 599" fill="none" xmlns="http://www.w3.org/2000/svg">
<rect x="181.5" y="18" width="20" height="21" fill="#8FEDAB"/>
<rect x="412.5" y="18" width="20" height="21" fill="#8FEDAB"/>
<rect x="396.5" y="33" width="36" height="21" fill="#8FEDAB"/>
<rect x="165.5" y="33" width="36" height="21" fill="#8FEDAB"/>
<path d="M313.5 490H282.5V472H313.5V490ZM183.5 476H151.5V441H183.5V476ZM446.5 476H411.5V441H446.5V476ZM282.5 472H265.5V455H282.5V472ZM329.5 472H313.5V455H329.5V472ZM313.5 455H282.5V440H313.5V455ZM356 152H392.5V161H406.5V182H422.5V197H435.5V309H422.5V325H406.5V340H385.5V349H423.5V364H441.5V392H370.5V364H382.5V361H212.5V364H230.5V392H159.5V364H171.5V349H211.5V346H186.5V330H170.5V300H162.25V210H174.5V186H186.5V167H209.5V152H240.5V136H356V152ZM280 297.5V315.5H316V297.5H280ZM266 281.5V297.5H280V281.5H266ZM316 281.5V297.5H330V281.5H316ZM200 203.5V207.5H192V222.5H180V273.5H192V285.5H200V295.5H238V283.5H249V271.5H261V222.5H247V207.5H238V203.5H200ZM356 203.5V207.5H348V222.5H336V273.5H348V285.5H356V295.5H394V283.5H405V271.5H417V222.5H403V207.5H394V203.5H356ZM239 258.5V267.5H237V268.5H228V276.5H219V267.5H227V258.5H239ZM395 258.5V267.5H393V268.5H384V276.5H375V267.5H383V258.5H395ZM219 222.5V238.5H203V222.5H219ZM375 222.5V238.5H359V222.5H375Z" fill="#8FEDAB"/>
<path d="M235 389H160V401H235V389Z" fill="white" stroke="white"/>
<path d="M442.5 389H363.5V401H442.5V389Z" fill="white" stroke="white"/>
<rect x="240" y="117.5" width="116" height="19" fill="white"/>
<rect x="356" y="136.5" width="38" height="17" fill="white"/>
<rect x="386" y="145.5" width="8" height="17" fill="white"/>
<rect x="394" y="153.5" width="15" height="17" fill="white"/>
<rect x="396" y="166.5" width="19" height="12" fill="white"/>
<rect x="406" y="175.5" width="21" height="11" fill="white"/>
<rect x="415" y="181.5" width="12" height="14" fill="white"/>
<rect x="421" y="187.5" width="16" height="24" fill="white"/>
<rect x="433" y="210.5" width="19" height="87" fill="white"/>
<rect width="17" height="19" transform="matrix(1 0 0 -1 422 315.5)" fill="white"/>
<rect width="18" height="11" transform="matrix(1 0 0 -1 414 325.5)" fill="white"/>
<rect width="18" height="11" transform="matrix(1 0 0 -1 404 335.5)" fill="white"/>
<rect width="37" height="17" transform="matrix(1 0 0 -1 385 351.5)" fill="white"/>
<rect width="37" height="14" transform="matrix(1 0 0 -1 378 351.5)" fill="white"/>
<rect width="38" height="15" transform="matrix(1 0 0 -1 350 366.5)" fill="white"/>
<rect width="38" height="19" transform="matrix(1 0 0 -1 315 370.5)" fill="white"/>
<rect width="38" height="19" transform="matrix(1 0 0 -1 336 370.5)" fill="white"/>
<rect width="18" height="19" transform="matrix(1 0 0 -1 356 388.5)" fill="white"/>
<rect width="38" height="19" transform="matrix(1 0 0 -1 278 370.5)" fill="white"/>
<rect width="38" height="19" transform="matrix(1 0 0 -1 255 370.5)" fill="white"/>
<rect width="37" height="9" transform="matrix(1 0 0 -1 390 351.5)" fill="white"/>
<rect width="35" height="16" transform="matrix(1 0 0 -1 420 367)" fill="white"/>
<rect width="15" height="47" transform="matrix(1 0 0 -1 440 390)" fill="white"/>
<rect width="18" height="47" transform="matrix(1 0 0 -1 433 402.5)" fill="white"/>
<rect width="11" height="16" transform="matrix(1 0 0 -1 447 352.5)" fill="white"/>
<rect width="33" height="21" transform="matrix(1 0 0 -1 453 342.5)" fill="white"/>
<rect width="17" height="30" transform="matrix(1 0 0 -1 469 327.5)" fill="white"/>
<rect width="17" height="18" transform="matrix(1 0 0 -1 474 315.5)" fill="white"/>
<rect width="27" height="17" transform="matrix(1 0 0 -1 493 371)" fill="white"/>
<rect width="17" height="18" transform="matrix(1 0 0 -1 487 355.5)" fill="white"/>
<rect width="17" height="9" transform="matrix(1 0 0 -1 472 342.5)" fill="white"/>
<path d="M452 522H395V543H452V522Z" fill="white" stroke="white"/>
<path d="M504 507.5H448V525.5H504V507.5Z" fill="white" stroke="white"/>
<path d="M540 490.5H496V508.5H540V490.5Z" fill="white" stroke="white"/>
<path d="M564 472.5H536V490.5H564V472.5Z" fill="white" stroke="white"/>
<path d="M596 423.5H579V461.5H596V423.5Z" fill="white" stroke="white"/>
<path d="M580 408.5H561V443.5H580V408.5Z" fill="white" stroke="white"/>
<path d="M565 398.5H557V418.5H565V398.5Z" fill="white" stroke="white"/>
<path d="M558 395.5H540V410.5H558V395.5Z" fill="white" stroke="white"/>
<path d="M549 380.5H515V396.5H549V380.5Z" fill="white" stroke="white"/>
<path d="M534 370.5H515V387.5H534V370.5Z" fill="white" stroke="white"/>
<path d="M417 543H362V561H417V543Z" fill="white" stroke="white"/>
<path d="M396 559H345V579H396V559Z" fill="white" stroke="white"/>
<path d="M362 578.5H237V598.5H362V578.5Z" fill="white" stroke="white"/>
<rect x="395" y="100.5" width="30" height="18" fill="white"/>
<rect x="417" y="117.5" width="20" height="18" fill="white"/>
<rect x="435" y="125.5" width="5" height="27" fill="white"/>
<rect x="440" y="134.5" width="15" height="18" fill="white"/>
<rect x="452" y="150.5" width="18" height="27" fill="white"/>
<rect x="469" y="169.5" width="18" height="42" fill="white"/>
<rect x="487" y="204.5" width="17" height="98" fill="white"/>
<path d="M162 133.5H144V152.5H162V133.5Z" fill="white" stroke="white"/>
<path d="M144 150.5H127V177.5H144V150.5Z" fill="white" stroke="white"/>
<path d="M127 170.5H109V211.5H127V170.5Z" fill="white" stroke="white"/>
<path d="M109 205.5H91V301.5H109V205.5Z" fill="white" stroke="white"/>
<path d="M126 298.5H105V315.5H126V298.5Z" fill="white" stroke="white"/>
<path d="M126 314.5H110V341.5H126V314.5Z" fill="white" stroke="white"/>
<path d="M141 322.5H125V341.5H141V322.5Z" fill="white" stroke="white"/>
<path d="M109.5 339H93.5V371H109.5V339Z" fill="white"/>
<path d="M154 335H138V363H154V335Z" fill="white" stroke="white"/>
<path d="M163 352.5H145V408.5H163V352.5Z" fill="white"/>
<path d="M239 83.5H194V100.5H239V83.5Z" fill="white" stroke="white"/>
<path d="M202 101.5H169V118.5H202V101.5Z" fill="white" stroke="white"/>
<path d="M176 118.5H157V135.5H176V118.5Z" fill="white" stroke="white"/>
<path d="M182 119.5H176V125.5H182V119.5Z" fill="white" stroke="white"/>
<path d="M360 65.5H237V83.5H360V65.5Z" fill="white" stroke="white"/>
<path d="M200.5 0.5H166V17.5H200.5V0.5Z" fill="white" stroke="white"/>
<path d="M202 53.5H166V70.5H202V53.5Z" fill="white" stroke="white"/>
<path d="M219 69.5H183V85.5H219V69.5Z" fill="white" stroke="white"/>
<rect x="149" y="17.5" width="17" height="37" fill="white"/>
<rect x="201" y="17.5" width="17" height="37" fill="white"/>
<path d="M433 17.5H450V54.5H433V70.5H396V55.5H379V17.5H396V0.5H433V17.5ZM397 53.5H432V18.5H397V53.5Z" fill="white"/>
<rect x="207" y="135.5" width="35" height="18" fill="white"/>
<rect x="193" y="152.5" width="19" height="17" fill="white"/>
<rect x="183" y="160.5" width="17" height="18" fill="white"/>
<rect x="172" y="175.5" width="20" height="11" fill="white"/>
<rect x="171" y="176.5" width="12" height="20" fill="white"/>
<rect x="169" y="177.5" width="6" height="19" fill="white"/>
<rect x="162" y="187.5" width="14" height="24" fill="white"/>
<rect x="162" y="211.5" width="5" height="6" fill="white"/>
<rect x="145" y="212.5" width="18" height="86" fill="white"/>
<rect x="156" y="298.5" width="17" height="17" fill="white"/>
<rect x="168" y="315.5" width="14" height="18" fill="white"/>
<rect x="178" y="322.5" width="13" height="17" fill="white"/>
<rect x="379" y="69.5" width="36" height="17" fill="white"/>
<rect x="356" y="83.5" width="48" height="18" fill="white"/>
<rect x="176" y="333.5" width="15" height="18" fill="white"/>
<rect x="189" y="334.5" width="27" height="17" fill="white"/>
<rect x="209" y="338.5" width="9" height="29" fill="white"/>
<rect x="166" y="345.5" width="10" height="21" fill="white"/>
<rect x="163" y="352.5" width="3" height="14" fill="white"/>
<rect x="216" y="351.5" width="39" height="16" fill="white"/>
<rect x="224" y="359.5" width="17" height="31" fill="white"/>
<rect x="239" y="351.5" width="17" height="19" fill="white"/>
<path d="M257.5 559H204.5V579H257.5V559Z" fill="white" stroke="white"/>
<path d="M239.5 543H181.5V561H239.5V543Z" fill="white" stroke="white"/>
<path d="M204.5 524H146.5V543H204.5V524Z" fill="white" stroke="white"/>
<rect width="21" height="32" transform="matrix(-1 0 0 1 514.5 355)" fill="white"/>
<rect x="102.5" y="389" width="7" height="18" fill="white"/>
<rect width="9" height="36" transform="matrix(-1 0 0 1 495.5 371)" fill="white"/>
<rect width="22" height="19" transform="matrix(-1 0 0 1 542.5 393)" fill="white"/>
<rect width="29" height="19" transform="matrix(-1 0 0 1 567.5 408)" fill="white"/>
<rect x="108.5" y="391" width="37" height="16" fill="white"/>
<rect x="149.5" y="508" width="300" height="17" fill="white"/>
<rect x="443.5" y="497" width="54" height="17" fill="white"/>
<rect x="493.5" y="475" width="45" height="22" fill="white"/>
<rect x="534.5" y="458" width="38" height="17" fill="white"/>
<rect x="558.5" y="458" width="23" height="18" fill="white"/>
<rect x="560.5" y="443" width="25" height="15" fill="white"/>
<rect x="145.5" y="409" width="306" height="16" fill="white"/>
<rect x="145.5" y="407" width="18" height="16" fill="white"/>
<rect x="433.5" y="388" width="18" height="35" fill="white"/>
<rect width="36" height="18" transform="matrix(-1 0 0 1 487.5 389)" fill="white"/>
<rect x="103.5" y="371" width="27" height="17" transform="rotate(180 103.5 371)" fill="white"/>
<rect x="109.5" y="355.5" width="17" height="18" transform="rotate(180 109.5 355.5)" fill="white"/>
<path d="M92.5 508H149.5V526H92.5V508Z" fill="white" stroke="white"/>
<path d="M56.5 490.5H100.5V508.5H56.5V490.5Z" fill="white" stroke="white"/>
<path d="M32.5 472.5H60.5V490.5H32.5V472.5Z" fill="white" stroke="white"/>
<path d="M0.5 423.5H17.5V461.5H0.5V423.5Z" fill="white" stroke="white"/>
<path d="M16.5 408.5H35.5V443.5H16.5V408.5Z" fill="white" stroke="white"/>
<path d="M31.5 400.5H39.5V418.5H31.5V400.5Z" fill="white" stroke="white"/>
<path d="M38.5 395.5H56.5V410.5H38.5V395.5Z" fill="white" stroke="white"/>
<path d="M47.5 380.5H81.5V396.5H47.5V380.5Z" fill="white" stroke="white"/>
<path d="M62.5 370.5H81.5V387.5H62.5V370.5Z" fill="white" stroke="white"/>
<rect x="82" y="355" width="22" height="30" fill="white"/>
<rect x="101" y="371" width="9" height="36" fill="white"/>
<rect x="53.5" y="393" width="22" height="19" fill="white"/>
<rect x="36" y="408" width="22" height="19" fill="white"/>
<rect width="54" height="17" transform="matrix(-1 0 0 1 153 497)" fill="white"/>
<rect width="45" height="22" transform="matrix(-1 0 0 1 104 475)" fill="white"/>
<rect width="38" height="17" transform="matrix(-1 0 0 1 62 458)" fill="white"/>
<rect width="23" height="18" transform="matrix(-1 0 0 1 38.5 458)" fill="white"/>
<rect width="25" height="15" transform="matrix(-1 0 0 1 36 443)" fill="white"/>
<rect x="109" y="389" width="36" height="18" fill="white"/>
<rect x="205.5" y="304.5" width="24" height="17" fill="#3FD975"/>
<rect x="364.5" y="304.5" width="24" height="17" fill="#3FD975"/>
<path d="M239 258.5V267.5H237V268.5H228V276.5H219V267.5H227V258.5H239ZM395 258.5V267.5H393V268.5H384V276.5H375V267.5H383V258.5H395ZM219 222.5V238.5H203V222.5H219ZM375 222.5V238.5H359V222.5H375Z" fill="white"/>
</svg>
